<?xml version="1.0" standalone="no"?>
<!DOCTYPE svg PUBLIC "-//W3C//DTD SVG 20010904//EN"
 "http://www.w3.org/TR/2001/REC-SVG-20010904/DTD/svg10.dtd">
<svg version="1.0" xmlns="http://www.w3.org/2000/svg"
 width="700.000000pt" height="700.000000pt" viewBox="0 0 700.000000 700.000000"
 preserveAspectRatio="xMidYMid meet">
<metadata>
Created by potrace 1.14, written by Peter Selinger 2001-2017
</metadata>
<g transform="translate(0.000000,700.000000) scale(0.100000,-0.100000)"
fill="#000000" stroke="none">
<path d="M3458 6975 c-20 -14 -40 -25 -43 -25 -3 0 -31 -16 -61 -35 -30 -19
-56 -35 -58 -35 -2 0 -56 -31 -120 -70 -65 -38 -119 -70 -122 -70 -3 0 -17 -8
-32 -19 -24 -16 -159 -96 -252 -149 -19 -10 -206 -120 -415 -242 -209 -123
-393 -231 -410 -240 -16 -10 -131 -77 -254 -149 -123 -72 -242 -142 -265 -155
-22 -13 -102 -59 -176 -103 -148 -87 -337 -198 -442 -259 -37 -22 -68 -41 -68
-44 0 -3 78 -50 173 -106 94 -55 289 -169 432 -254 143 -84 265 -153 270 -153
6 0 186 102 400 228 360 211 478 280 625 365 96 56 292 171 390 230 52 31 102
59 110 63 8 4 67 38 130 76 63 38 142 84 175 102 l61 31 103 -61 c56 -33 104
-61 106 -61 1 0 49 -29 107 -63 58 -35 118 -71 134 -79 16 -9 207 -120 424
-248 217 -127 413 -242 435 -255 22 -12 157 -91 300 -175 143 -84 264 -153
270 -153 5 0 100 53 210 118 110 65 215 126 233 136 62 36 97 57 153 90 31 19
106 63 168 99 61 36 111 68 111 71 0 3 -17 15 -37 26 -55 30 -293 169 -328
192 -16 10 -100 59 -185 108 -156 90 -974 569 -1235 723 -77 45 -160 94 -185
108 -25 14 -103 60 -175 102 -160 95 -318 187 -348 203 -12 7 -77 45 -144 85
-67 39 -123 72 -125 72 -2 0 -20 -11 -40 -25z"/>
<path d="M3097 5039 c-55 -32 -101 -59 -103 -59 -3 0 -10 -5 -17 -10 -10 -9
-507 -301 -755 -444 -30 -17 -61 -35 -70 -41 -10 -5 -66 -38 -125 -73 -60 -35
-110 -69 -113 -75 -2 -7 -3 -348 -2 -759 l3 -747 65 39 c36 21 81 47 100 58
40 22 610 356 655 383 17 11 39 23 50 29 11 5 110 63 220 128 l200 118 0 757
c0 416 -2 757 -5 756 -3 0 -49 -27 -103 -60z"/>
<path d="M3795 4343 l0 -757 345 -203 c190 -111 356 -209 370 -216 14 -8 116
-68 228 -133 112 -65 217 -127 235 -137 18 -10 51 -30 75 -43 l42 -25 0 758 0
758 -351 205 c-193 113 -367 215 -387 226 -20 12 -116 68 -212 124 -221 130
-341 200 -344 200 -1 0 -1 -341 -1 -757z"/>
<path d="M442 3239 l3 -1623 280 -164 c154 -90 296 -173 315 -184 19 -11 87
-51 150 -88 63 -37 131 -77 150 -88 143 -81 1838 -1076 1848 -1084 6 -6 13 -9
13 -7 1 2 2 235 3 518 l2 514 -41 25 c-57 36 -250 149 -315 185 -30 16 -62 35
-70 41 -8 6 -25 16 -37 23 -11 7 -205 120 -430 251 -224 132 -424 249 -443
259 -19 11 -91 54 -160 95 -69 41 -132 77 -140 81 -8 4 -67 37 -130 75 l-115
68 -2 1085 c-1 596 -2 1093 -2 1105 -1 14 -16 30 -48 48 -127 73 -191 111
-353 206 -96 56 -188 110 -205 120 -43 25 -204 119 -243 142 l-32 20 2 -1623z"/>
<path d="M6506 4830 c-25 -17 -51 -30 -56 -30 -6 0 -10 -4 -10 -10 0 -5 -4
-10 -9 -10 -5 0 -55 -27 -111 -60 -56 -33 -106 -60 -111 -60 -5 0 -9 -4 -9
-10 0 -5 -4 -10 -9 -10 -5 0 -83 -43 -173 -96 -89 -53 -202 -120 -250 -148
l-88 -51 -1 -65 c0 -36 0 -532 -1 -1102 l0 -1038 -28 -20 c-15 -11 -30 -20
-32 -20 -3 0 -220 -126 -484 -281 -263 -155 -495 -290 -514 -301 -147 -85
-807 -472 -815 -479 -11 -8 -15 -1035 -5 -1033 3 0 16 7 30 16 14 8 57 33 95
55 39 22 241 140 450 263 209 122 394 230 410 240 77 45 131 76 394 230 155
91 296 173 314 183 90 52 226 133 259 153 21 13 40 24 43 24 3 0 18 8 33 19
21 15 236 141 350 206 146 83 373 219 377 226 6 9 8 3230 2 3235 -2 2 -25 -10
-51 -26z"/>
<path d="M3130 2852 c-201 -118 -374 -220 -385 -226 -12 -6 -136 -78 -277
-161 -194 -113 -254 -153 -245 -161 7 -6 280 -168 607 -359 327 -191 612 -358
633 -370 l38 -22 222 130 c175 103 898 525 992 580 11 7 33 20 48 31 l28 18
-79 48 c-43 26 -91 54 -105 61 -15 8 -95 54 -179 104 -84 49 -162 95 -173 101
-11 6 -116 68 -234 138 -117 69 -215 126 -216 126 -1 0 -56 32 -121 71 -65 39
-134 79 -153 88 l-36 18 -365 -215z"/>
</g>
</svg>
